<svg xmlns="http://www.w3.org/2000/svg"  viewBox="0 0 64 64" width="100px" height="100px"><path fill="#454a6d" d="M49,51H8c-2.761,0-5,2.239-5,5v0V10c0-2.761,2.239-5,5-5h41V51z"/><path fill="#dbd8d5" d="M49,61H8c-2.761,0-5-2.239-5-5v0c0-2.761,2.239-5,5-5h41V61z"/><path fill="#f7f4f0" d="M35,38v-9L61,3v8.059c0,6.365-2.529,12.47-7.029,16.971L44,38H35z"/><rect width="33.941" height="2" x="24.029" y="31" fill="#e89d43" transform="rotate(-45.001 41 32)"/><circle cx="26" cy="19" r="9" fill="#33385c"/><circle cx="26" cy="17" r="3" fill="#4ac3ed"/><path fill="#4ac3ed" d="M26,20c-3.215,0-5.832,2.531-5.985,5.708C21.606,27.129,23.699,28,26,28s4.394-0.871,5.985-2.292	C31.832,22.531,29.215,20,26,20z"/><rect width="10" height="2" x="17" y="43" fill="#33385c"/><rect width="13" height="2" x="17" y="38" fill="#33385c"/><rect width="15" height="2" x="17" y="33" fill="#33385c"/></svg>