<svg xmlns="http://www.w3.org/2000/svg"  viewBox="0 0 50 50" width="100px" height="100px"><path d="M 36.949219 5.9882812 A 1.0001 1.0001 0 0 0 36.849609 5.9980469 A 1.0001 1.0001 0 0 0 36.751953 6.0195312 A 1.0001 1.0001 0 0 0 36.134766 6.4941406 A 1.0001 1.0001 0 0 0 36.064453 6.6484375 C 33.907198 12.401117 30.325262 15.161168 26.923828 16.576172 C 26.07347 16.929923 25.236129 17.196672 24.4375 17.396484 C 25.413323 16.192955 26 14.663249 26 13 C 26 9.1458524 22.854151 6 19 6 C 15.145849 6 12 9.1458524 12 13 C 12 16.817846 15.088161 19.935651 18.892578 19.994141 A 1.0001 1.0001 0 0 0 19 20 C 20.327 20 23.88134 20.0088 27.691406 18.423828 C 29.451289 17.691713 31.259513 16.552027 32.939453 14.980469 L 22.564453 42.648438 A 1.0001 1.0001 0 1 0 24.435547 43.351562 L 37.935547 7.3515625 A 1.0001 1.0001 0 0 0 37.990234 7.1582031 A 1.0001 1.0001 0 0 0 38.001953 7.0605469 A 1.0001 1.0001 0 0 0 38.003906 6.9589844 A 1.0001 1.0001 0 0 0 37.978516 6.7617188 A 1.0001 1.0001 0 0 0 37.814453 6.4003906 A 1.0001 1.0001 0 0 0 37.681641 6.25 A 1.0001 1.0001 0 0 0 37.605469 6.1875 A 1.0001 1.0001 0 0 0 37.521484 6.1308594 A 1.0001 1.0001 0 0 0 37.433594 6.0839844 A 1.0001 1.0001 0 0 0 37.341797 6.0449219 A 1.0001 1.0001 0 0 0 37.246094 6.015625 A 1.0001 1.0001 0 0 0 37.048828 5.9882812 A 1.0001 1.0001 0 0 0 36.949219 5.9882812 z M 19 8 C 21.773271 8 24 10.226731 24 13 C 24 15.773269 21.773271 18 19 18 C 16.226729 18 14 15.773269 14 13 C 14 10.226731 16.226729 8 19 8 z"/></svg>