<svg xmlns="http://www.w3.org/2000/svg"  viewBox="0 0 64 64" width="100px" height="100px"><path d="M 50.421875 13.023438 C 50.037578 13.023654 49.629903 13.032737 49.199219 13.048828 C 47.476483 13.113188 45.426005 13.316519 43.265625 13.695312 C 39.147625 14.41735 34.673274 15.775093 31.341797 18.085938 C 21.524638 12.934358 8.6992188 17.060547 8.6992188 17.060547 A 1.0001 1.0001 0 0 0 8 18.015625 L 8 51.144531 A 1.0001 1.0001 0 0 0 9.453125 52.037109 C 9.453125 52.037109 13.627193 49.887695 21.511719 49.888672 C 25.682335 49.888672 28.717122 50.373866 31 51.005859 L 31 51.371094 C 31 53.13243 31.900892 54.539754 33.068359 55.240234 C 33.652093 55.590475 34.329324 55.780928 35.027344 55.65625 C 35.725364 55.531572 36.386652 55.02196 36.716797 54.314453 C 37.153561 53.378046 36.946464 52.22599 36.291016 51.425781 C 35.635567 50.625572 34.639168 50.032497 33.328125 49.525391 C 33.24078 49.491606 33.090294 49.478217 33 49.445312 L 33 24 A 1.0001 1.0001 0 1 0 31 24 L 31 48.958984 C 28.519327 48.335943 25.515894 47.888672 21.511719 47.888672 C 15.026645 47.887868 11.545026 49.119778 10 49.746094 L 10 18.794922 C 11.82018 18.289057 22.850639 15.479742 30.929688 20.074219 A 1.0001 1.0001 0 0 0 32.023438 20.005859 C 34.947465 17.813071 39.472135 16.391427 43.609375 15.666016 C 45.677995 15.30331 47.652376 15.107512 49.275391 15.046875 C 50.541664 14.999565 51.322876 15.091145 52 15.177734 L 52 41.341797 C 51.346357 41.454729 49.153732 41.808458 45.923828 42.732422 C 42.248569 43.783786 38.124799 45.220702 36.095703 47.669922 A 1.0001 1.0001 0 0 0 37.066406 49.287109 C 42.56373 48.165285 50.542714 48.403043 56.527344 51.617188 A 1.0001 1.0001 0 0 0 58 50.736328 L 58 22 A 1.0001 1.0001 0 1 0 56 22 L 56 49.273438 C 51.166597 47.091471 45.697625 46.438455 40.896484 46.791016 C 42.583207 45.964961 44.535889 45.210851 46.474609 44.65625 C 50.02235 43.641364 53.162109 43.123047 53.162109 43.123047 A 1.0001 1.0001 0 0 0 54 42.136719 L 54 14.242188 A 1.0001 1.0001 0 0 0 53.232422 13.269531 C 52.516556 13.09778 51.574765 13.022787 50.421875 13.023438 z M 33.080078 51.679688 C 33.810639 52.032133 34.507804 52.404826 34.744141 52.693359 C 35.04788 53.064182 35.047533 53.161657 34.904297 53.46875 C 34.804437 53.682743 34.772761 53.670178 34.675781 53.6875 C 34.578801 53.70482 34.358922 53.6822 34.097656 53.525391 C 33.634426 53.247453 33.188519 52.563895 33.080078 51.679688 z"/></svg>