<svg xmlns="http://www.w3.org/2000/svg"  viewBox="0 0 50 50" width="100px" height="100px"><path d="M 19 4 A 1.0001 1.0001 0 0 0 18.349609 5.7597656 L 20.279297 7.4140625 C 21.9555 8.8509176 22.378703 11.121545 21.591797 13 L 19 13 L 16.242188 13 L 17.121094 12.121094 C 18.291094 10.951094 18.291094 9.0479062 17.121094 7.8789062 C 15.952094 6.7079062 14.048906 6.7098594 12.878906 7.8808594 L 6.1054688 14.671875 C 5.3895933 15.389434 4.8576615 16.17469 4.5058594 17 L 2 17 L 2 19 L 6 19 L 6.0253906 19 C 6.1513906 17.723 6.8884844 16.717031 7.5214844 16.082031 L 14.292969 9.2929688 C 14.682969 8.9029687 15.317031 8.9029687 15.707031 9.2929688 C 15.896031 9.4819688 16 9.733 16 10 C 16 10.267 15.895031 10.518031 15.707031 10.707031 L 11.414062 15 L 17 15 L 19 15 L 21.980469 15 A 1.0001 1.0001 0 0 0 22.445312 15 L 27 15 C 27.56503 15 28 15.43497 28 16 C 28 16.56503 27.56503 17 27 17 L 19 17 L 19 19 L 27 19 L 29 19 C 29.56503 19 30 19.43497 30 20 C 30 20.56503 29.56503 21 29 21 L 27 21 L 19 21 L 19 23 L 27 23 C 27.56503 23 28 23.43497 28 24 C 28 24.56503 27.56503 25 27 25 L 19 25 L 19 27 L 23 27 C 23.551 27 24 27.448 24 28 C 24 28.552 23.551 29 23 29 L 19.041016 29 A 1.0001 1.0001 0 0 0 18.484375 29 L 11 29 C 9.373 29 7.9383906 28.207 7.0253906 27 L 7 27 L 2 27 L 2 29 L 6.1386719 29 C 7.3983571 30.229184 9.1066053 31 11.001953 31 L 18.296875 31 C 18.839479 31.740761 19.466857 32.408743 20.167969 33 L 10 33 A 1.0001 1.0001 0 0 0 9 34 L 9 41 A 1.0001 1.0001 0 0 0 10 42 L 27 42 L 27 46 L 29 46 L 29 42 L 46 42 A 1.0001 1.0001 0 0 0 47 41 L 47 34 A 1.0001 1.0001 0 0 0 46 33 L 35.796875 33 C 38.348172 30.813442 40 27.619226 40 24 C 40 20.428015 38.415187 17.232538 35.953125 15.029297 L 35.638672 14.746094 C 33.432798 12.767518 33.46782 9.3428348 35.71875 7.4140625 A 1.0001 1.0001 0 0 0 35.720703 7.4140625 L 37.650391 5.7597656 A 1.0001 1.0001 0 0 0 37 4 L 28 4 L 19 4 z M 21.666016 6 L 28 6 L 34.339844 6 C 31.298668 8.7104033 31.255645 13.505011 34.302734 16.236328 A 1.0001 1.0001 0 0 0 34.304688 16.236328 L 34.619141 16.519531 C 36.685033 18.36829 38 21.017985 38 24 C 38 27.892159 35.780857 31.243781 32.544922 32.900391 A 1.0001 1.0001 0 0 0 32.386719 33 L 23.613281 33 A 1.0001 1.0001 0 0 0 23.455078 32.900391 C 22.499882 32.411076 21.647464 31.757725 20.900391 31 L 23.001953 31 C 24.655953 31 26.001953 29.654 26.001953 28 C 26.00174 27.647679 25.928548 27.314253 25.816406 27 L 27 27 C 28.64497 27 30 25.64497 30 24 C 30 23.605826 29.916346 23.230988 29.775391 22.884766 C 31.047741 22.537566 32 21.37563 32 20 C 32 18.62437 31.047741 17.462434 29.775391 17.115234 C 29.916346 16.769012 30 16.394174 30 16 C 30 14.35503 28.64497 13 27 13 L 23.695312 13 C 24.383276 10.557278 23.703101 7.8171469 21.666016 6 z M 11 35 L 45 35 L 45 40 L 11 40 L 11 35 z"/></svg>